<svg xmlns="http://www.w3.org/2000/svg" viewBox="0 0 66 66" id="to-do-list"><path fill="#e2e2e2" d="M50.42 5.82v54.36c0 1.7-1.38 3.08-3.08 3.08H7.57c-1.7 0-3.08-1.38-3.08-3.08V5.82c0-1.7 1.38-3.08 3.08-3.08h39.77c1.7 0 3.08 1.38 3.08 3.08z"></path><path fill="#fff" d="M47.34 2.74H22.99v17.31c0 10.11 8.19 18.3 18.3 18.3h9.13V5.82c0-1.7-1.38-3.08-3.08-3.08z" opacity=".5"></path><path fill="#fff" d="M50.42 34.75V5.82c0-1.7-1.38-3.08-3.08-3.08H26.66c0 2.03 1.64 3.67 3.67 3.67h16.86v25.1c0 1.79 1.45 3.24 3.23 3.24z" opacity=".5"></path><path d="M47.34 64.23H7.57c-2.23 0-4.05-1.82-4.05-4.05V13.62a.97.97 0 0 1 1.94 0v46.56c0 1.16.95 2.11 2.11 2.11h39.77c1.16 0 2.11-.95 2.11-2.11v-4.02a.97.97 0 0 1 1.94 0v4.02c0 2.23-1.82 4.05-4.05 4.05zm3.08-11.94c-.54 0-.97-.43-.97-.97V5.82c0-1.16-.95-2.11-2.11-2.11H7.57c-1.16 0-2.11.95-2.11 2.11v3.12c0 .53-.43.97-.97.97s-.96-.43-.96-.97V5.82c0-2.23 1.82-4.05 4.05-4.05h39.77c2.23 0 4.05 1.82 4.05 4.05v45.51c-.01.53-.44.96-.98.96z"></path><path fill="#7cb5e8" d="M10.63 26.27h6.91v6.91h-6.91z"></path><path d="M17.54 34.15h-6.91c-.54 0-.97-.43-.97-.97v-6.91c0-.53.43-.97.97-.97h6.91c.54 0 .97.43.97.97v6.91c0 .53-.44.97-.97.97zm-5.94-1.94h4.97v-4.97H11.6v4.97z"></path><path fill="#7cb5e8" d="M10.63 37.94h6.91v6.91h-6.91z"></path><path d="M17.54 45.82h-6.91c-.54 0-.97-.43-.97-.97v-6.91c0-.53.43-.97.97-.97h6.91c.54 0 .97.43.97.97v6.91c0 .53-.44.97-.97.97zm-5.94-1.94h4.97v-4.97H11.6v4.97z"></path><path fill="#7cb5e8" d="M10.63 49.61h6.91v6.91h-6.91z"></path><path d="M17.54 57.49h-6.91c-.54 0-.97-.43-.97-.97v-6.91c0-.53.43-.97.97-.97h6.91c.54 0 .97.43.97.97v6.91c0 .53-.44.97-.97.97zm-5.94-1.94h4.97v-4.97H11.6v4.97zm5.94-21.4h-6.91c-.54 0-.97-.43-.97-.97v-6.91c0-.53.43-.97.97-.97h6.91c.54 0 .97.43.97.97v6.91c0 .53-.44.97-.97.97zm-5.94-1.94h4.97v-4.97H11.6v4.97zm5.94 13.61h-6.91c-.54 0-.97-.43-.97-.97v-6.91c0-.53.43-.97.97-.97h6.91c.54 0 .97.43.97.97v6.91c0 .53-.44.97-.97.97zm-5.94-1.94h4.97v-4.97H11.6v4.97z"></path><path d="M17.54 57.49h-6.91c-.54 0-.97-.43-.97-.97v-6.91c0-.53.43-.97.97-.97h6.91c.54 0 .97.43.97.97v6.91c0 .53-.44.97-.97.97zm-5.94-1.94h4.97v-4.97H11.6v4.97zm31.72-35.52H11.6c-.54 0-.97-.43-.97-.97s.43-.97.97-.97h31.72a.97.97 0 0 1 0 1.94zm-4.46-4.75H16.05c-.54 0-.97-.43-.97-.97s.43-.97.97-.97h22.81c.54 0 .97.43.97.97s-.43.97-.97.97zM44.29 28.59H22.92a.97.97 0 0 1 0-1.94h21.37c.54 0 .97.43.97.97-.01.54-.44.97-.97.97zm-7.25 4.2H22.92c-.54 0-.97-.43-.97-.97s.43-.97.97-.97h14.13c.54 0 .97.43.97.97s-.44.97-.98.97zM44.29 40.26H22.92a.97.97 0 0 1 0-1.94h21.37c.54 0 .97.43.97.97-.01.54-.44.97-.97.97zm-7.25 4.2H22.92a.97.97 0 0 1 0-1.94h14.13c.54 0 .97.43.97.97a.98.98 0 0 1-.98.97zM44.29 51.93H22.92a.97.97 0 0 1 0-1.94h21.37c.54 0 .97.43.97.97-.01.54-.44.97-.97.97zm-7.25 4.2H22.92a.97.97 0 0 1 0-1.94h14.13c.54 0 .97.43.97.97a.98.98 0 0 1-.98.97z"></path><path fill="#ef4a51" d="M54.29 17.04h7.22v34.62h-7.22z"></path><path fill="#ffab03" d="M61.5 51.67h-7.21l3.61 9.92z"></path><path fill="#4e6575" d="M60.16 55.35h-4.53l2.27 6.24z"></path><path d="M57.9 62.56c-.41 0-.77-.25-.91-.64l-2.27-6.23c-.11-.3-.06-.63.12-.89s.48-.41.79-.41h4.53c.32 0 .61.15.79.41.18.26.23.59.12.89l-2.27 6.23a.96.96 0 0 1-.9.64zm-.89-6.24.89 2.43.89-2.43h-1.78z"></path><path d="M57.9 62.56c-.41 0-.77-.25-.91-.64L53.38 52c-.11-.3-.06-.63.12-.89s.48-.41.79-.41h7.22c.32 0 .61.15.79.41.18.26.23.59.12.89l-3.61 9.92c-.14.38-.51.64-.91.64zm-2.23-9.93 2.23 6.12 2.23-6.12h-4.46z"></path><path fill="none" d="M54.29 17.04h7.22v34.62h-7.22z"></path><path fill="#fff" d="M61.51 17.04v29.87c-2.82 0-5.11-2.29-5.11-5.11V17.04h5.11z" opacity=".3"></path><path d="M61.5 52.63h-7.22c-.54 0-.97-.43-.97-.97V17.04c0-.53.43-.97.97-.97h7.22c.54 0 .97.43.97.97v5.94a.97.97 0 0 1-1.94 0v-4.97h-5.28V50.7h5.28V28.15a.97.97 0 0 1 1.94 0v23.52c0 .53-.43.96-.97.96z"></path><path fill="#8aba55" d="M61.51 11.9v5.15h-7.22V11.9c0-.91.74-1.65 1.64-1.65h3.93c.91 0 1.65.74 1.65 1.65z"></path><path d="M61.5 18.01h-7.22c-.54 0-.97-.43-.97-.97V11.9c0-1.44 1.17-2.61 2.61-2.61h3.93c1.44 0 2.61 1.17 2.61 2.61v5.15c.01.53-.42.96-.96.96zm-6.24-1.93h5.28V11.9c0-.37-.3-.68-.68-.68h-3.93c-.37 0-.67.3-.67.68v4.18z"></path></svg>